<svg width="500" height="500" xmlns="http://www.w3.org/2000/svg">

 <g>
  <title>background</title>
  <rect fill="none" id="canvas_background" height="402" width="582" y="-1" x="-1"/>
 </g>
 <g>
  <title>Layer 1</title>
  <g id="svg_1">
   <g id="svg_2">
    <polygon fill="#ffffff" id="svg_3" points="469,360 414.3,360 414.3,332.6 441.6,332.6 441.6,252.7 418.1,182.1 318.4,182.1 318.4,332.6 332.1,332.6     332.1,360 291.1,360 291.1,154.7 437.8,154.7 469,248.3   "/>
   </g>
   <g id="svg_4">
    <path fill="#ffffff" id="svg_5" d="m373.2,401.1c-30.2,0 -54.8,-24.6 -54.8,-54.8c0,-30.2 24.6,-54.8 54.8,-54.8c30.2,0 54.8,24.6 54.8,54.8c-0.1,30.2 -24.6,54.8 -54.8,54.8zm0,-82.2c-15.1,0 -27.4,12.3 -27.4,27.4c0,15.1 12.3,27.4 27.4,27.4c15.1,0 27.4,-12.3 27.4,-27.4c0,-15.1 -12.3,-27.4 -27.4,-27.4z"/>
   </g>
   <g id="svg_6">
    <polygon fill="#ffffff" id="svg_7" points="113.1,360 58.4,360 58.4,264.2 85.7,264.2 85.7,332.6 113.1,332.6   "/>
   </g>
   <g id="svg_8">
    <polygon fill="#ffffff" id="svg_9" points="318.4,360 195.2,360 195.2,332.6 291.1,332.6 291.1,127.3 31,127.3 31,99.9 318.4,99.9   "/>
   </g>
   <g id="svg_10">
    <path fill="#ffffff" id="svg_11" d="m154.2,401.1c-30.2,0 -54.8,-24.6 -54.8,-54.8c0,-30.2 24.6,-54.8 54.8,-54.8s54.8,24.6 54.8,54.8c-0.1,30.2 -24.6,54.8 -54.8,54.8zm0,-82.2c-15.1,0 -27.4,12.3 -27.4,27.4c0,15.1 12.3,27.4 27.4,27.4s27.4,-12.3 27.4,-27.4c0,-15.1 -12.3,-27.4 -27.4,-27.4z"/>
   </g>
   <g id="svg_12">
    <rect fill="#ffffff" id="svg_13" y="154.7" x="44.7" width="123.2" height="27.4"/>
   </g>
   <g id="svg_14">
    <rect fill="#ffffff" id="svg_15" y="209.4" x="58.4" width="82.1" height="27.4"/>
   </g>
  </g>
 </g>
</svg>